<svg width="14" height="14" viewBox="0 0 14 14" fill="none" xmlns="http://www.w3.org/2000/svg">
<path d="M13.1708 3.23533L10.8881 0.940882C10.7372 0.790797 10.5331 0.706543 10.3203 0.706543C10.1075 0.706543 9.90335 0.790797 9.7525 0.940882L1.65972 9.02199L0.920834 12.2109C0.895345 12.3275 0.896219 12.4482 0.923392 12.5644C0.950565 12.6806 1.00335 12.7893 1.07789 12.8825C1.15243 12.9756 1.24685 13.051 1.35424 13.103C1.46163 13.155 1.57929 13.1824 1.69861 13.1831C1.75421 13.1887 1.81024 13.1887 1.86583 13.1831L5.08972 12.4442L13.1708 4.37088C13.3209 4.22003 13.4052 4.0159 13.4052 3.8031C13.4052 3.59031 13.3209 3.38617 13.1708 3.23533ZM4.70083 11.7442L1.67917 12.3781L2.3675 9.41477L8.4225 3.3831L10.7558 5.71644L4.70083 11.7442ZM11.2769 5.15255L8.94361 2.81922L10.2969 1.47366L12.5914 3.80699L11.2769 5.15255Z" fill="white"/>
</svg>
